<svg width="53" height="50" viewBox="0 0 53 50" fill="none" xmlns="http://www.w3.org/2000/svg">
<path d="M24.7446 0.616623C24.179 1.04082 22.3409 1.11152 20.7148 0.899419C18.0282 0.475225 17.4626 0.687322 15.4831 2.66689C13.6449 4.57577 13.2914 5.28276 13.6449 7.33303L13.9984 9.66609L11.6653 8.67631C9.12017 7.61582 0 7.26233 0 8.25211C0 8.53491 1.62608 10.0196 3.53495 11.5043C5.51452 12.9889 7.35269 14.7564 7.70619 15.3927C8.90807 17.7258 9.19087 21.4021 8.34248 23.6645C7.70619 25.5027 7.70619 26.4217 8.41318 27.9771C9.26156 29.7446 9.12017 30.0274 7.42339 31.4414C5.58522 32.9261 2.82796 36.5317 2.82796 37.5215C2.82796 37.875 4.59543 38.0871 6.7164 38.0871C13.3621 38.0871 18.7352 42.1169 20.1492 48.1263C20.7148 50.4594 21.139 50.4594 26.2293 48.9747C31.461 47.4193 34.8546 45.5812 38.2481 42.5411C42.4194 38.7234 44.2576 35.047 46.2371 26.4217C48.2874 17.1602 49.0651 14.8978 51.0447 12.8475C51.893 11.9285 52.3879 11.0094 52.1051 10.7973C51.3982 10.0903 45.7422 10.3731 43.6213 11.1508C42.1366 11.7164 41.7124 11.7164 41.7124 10.868C41.7124 10.3731 41.0054 9.0298 40.0863 8.04002C38.8844 6.62604 37.8239 6.13114 35.8444 6.13114C33.8648 6.13114 33.2285 5.84835 33.2285 4.92926C33.1578 1.53571 27.6433 -1.29225 24.7446 0.616623ZM30.4006 2.73759C32.2387 4.57577 32.3801 7.96932 30.6127 7.40372C29.9057 7.19163 27.8554 6.83813 26.0172 6.62604C23.26 6.20184 22.553 6.34324 21.2804 7.61582C20.432 8.46421 19.7957 9.73679 19.7957 10.4438C19.7957 12.282 18.7352 12.8475 16.5436 12.3527C15.2003 11.9992 14.9175 11.6457 15.4831 11.0094C15.9073 10.4438 15.9073 9.73679 15.5538 9.1005C13.15 5.35345 18.0989 0.333828 21.846 2.66689C22.553 3.09109 23.4014 3.02039 24.3204 2.3134C26.3707 0.899419 28.7745 1.11152 30.4006 2.73759ZM39.2379 9.3126C39.8035 10.161 40.2984 11.3629 40.2984 12.0699C40.2984 12.7061 41.0761 14.0494 42.0659 15.0392C44.399 17.3723 44.3283 19.9174 41.9952 21.7556C40.9347 22.604 39.6621 23.2403 39.1672 23.2403C38.6016 23.2403 38.1774 23.8059 38.1774 24.4422C38.1774 27.3408 32.7336 29.5325 30.6834 27.4822C29.6936 26.4924 24.7446 28.5427 24.7446 29.9567C24.7446 31.5828 22.1288 33.8451 20.2906 33.8451C19.3715 33.8451 17.8868 33.0674 16.9678 32.0777C16.0487 31.0879 14.564 30.3102 13.6449 30.3102C10.11 30.3102 8.05968 25.9269 10.1807 22.8161C10.8876 21.897 10.9583 21.0486 10.5341 20.3416C8.20108 16.6653 13.2207 11.6457 16.8971 13.9787C17.604 14.4029 18.4524 14.3322 19.3715 13.6252C20.1492 13.0596 21.2804 12.6354 21.9167 12.6354C22.4823 12.6354 23.5428 11.6457 24.2497 10.4438C25.3809 8.32281 25.6637 8.25211 28.7038 8.60561C30.6834 8.8177 32.6629 8.60561 33.7234 8.04002C35.8444 6.90883 37.8946 7.40372 39.2379 9.3126ZM23.1186 9.45399C22.1995 11.3629 21.2097 11.7871 21.2097 10.3024C21.2097 9.3126 22.553 7.68652 23.4014 7.68652C23.6842 7.68652 23.5428 8.46421 23.1186 9.45399ZM10.6755 9.94889C12.2309 10.3731 13.4328 10.9387 13.4328 11.2215C13.4328 11.4336 12.443 12.4234 11.2411 13.2717L9.04947 14.8978L6.08011 11.9992L3.18145 9.1005H5.58522C6.9285 9.1005 9.19087 9.45399 10.6755 9.94889ZM49.4893 12.282C49.4893 12.4941 48.9944 13.4131 48.4288 14.3322C47.7925 15.2513 46.2371 20.3416 44.8938 25.6441C43.5506 31.0172 41.8538 36.1782 41.0761 37.2387C37.7532 41.8341 31.7438 46.0054 26.1586 47.6314C24.4618 48.1263 24.4618 48.1263 25.8051 47.0658C26.5828 46.4296 27.007 45.7226 26.7242 45.4398C26.4414 45.157 25.8051 45.2984 25.3102 45.6519C23.8963 46.783 21.139 46.2882 20.3613 44.7328C17.9575 40.3494 13.5742 37.4508 8.13038 36.7438L4.59543 36.2489L7.35269 33.5623C9.68576 31.3 10.3927 31.0172 12.3016 31.4414C13.5035 31.7242 15.4124 32.6433 16.4729 33.5623C17.604 34.4814 19.0887 35.2591 19.8664 35.2591C20.5734 35.2591 21.2097 35.5419 21.2097 35.9661C21.2097 36.3196 21.5632 36.6731 21.9874 36.6731C22.4116 36.6731 22.6237 36.2489 22.4116 35.6833C22.1995 35.1177 22.6944 34.4107 23.7549 33.9865C24.6739 33.5623 25.593 32.4312 25.8051 31.5828C26.3 29.6739 29.128 28.1185 30.542 28.9669C31.0368 29.3204 32.5215 29.6032 33.7941 29.6032C36.2686 29.6032 39.5914 26.9873 39.5914 25.0078C39.5914 24.4422 40.2277 23.9473 40.9347 23.9473C42.7729 23.9473 45.2473 20.6951 45.2473 18.2914C45.2473 17.2309 44.611 15.5341 43.8334 14.5443C42.4901 12.8475 42.4901 12.7061 43.6213 12.4234C45.4594 11.9285 49.4893 11.8578 49.4893 12.282Z" fill="#9B8464"/>
<path d="M29.6935 14.0495C26.8656 16.8775 28.9158 21.8264 32.875 21.8264C35.1373 21.8264 37.4704 19.4933 37.4704 17.231C37.4704 16.2412 36.8341 14.8272 36.0564 14.0495C35.2787 13.2718 33.8648 12.6355 32.875 12.6355C31.8852 12.6355 30.4712 13.2718 29.6935 14.0495ZM34.9252 15.1807C37.0462 17.3017 35.8443 20.4124 32.875 20.4124C29.9056 20.4124 28.7037 17.3017 30.8247 15.1807C31.3903 14.5444 32.3801 14.0495 32.875 14.0495C33.3699 14.0495 34.3596 14.5444 34.9252 15.1807Z" fill="#9B8464"/>
<path d="M23.3307 16.1705C23.3307 16.5239 23.6842 16.8774 24.0377 16.8774C24.4619 16.8774 24.7447 16.5239 24.7447 16.1705C24.7447 15.7463 24.4619 15.4635 24.0377 15.4635C23.6842 15.4635 23.3307 15.7463 23.3307 16.1705Z" fill="#9B8464"/>
<path d="M16.2607 19.7054C12.6551 23.311 16.6142 28.8962 21.4925 27.0581C23.5427 26.2804 22.6236 25.2906 20.2906 25.7148C17.3919 26.2804 15.9072 24.7957 16.5435 22.1798C16.897 20.9073 17.604 20.271 19.0887 19.9175C20.2906 19.7054 21.2097 19.2812 21.2097 18.9277C21.2097 17.7258 17.6747 18.2914 16.2607 19.7054Z" fill="#9B8464"/>
<path d="M22.6236 23.9473C22.6236 24.3008 22.9771 24.6543 23.3306 24.6543C23.7548 24.6543 24.0376 24.3008 24.0376 23.9473C24.0376 23.5231 23.7548 23.2403 23.3306 23.2403C22.9771 23.2403 22.6236 23.5231 22.6236 23.9473Z" fill="#9B8464"/>
<path d="M32.5215 37.4508C32.5215 37.8043 32.875 37.9457 33.2285 37.7336C33.6527 37.5215 33.9355 37.168 33.9355 36.9559C33.9355 36.8145 33.6527 36.6731 33.2285 36.6731C32.875 36.6731 32.5215 37.0266 32.5215 37.4508Z" fill="#9B8464"/>
<path d="M22.2701 38.7941C22.4822 39.1476 22.8357 39.5011 23.0478 39.5011C23.1891 39.5011 23.3305 39.1476 23.3305 38.7941C23.3305 38.3699 22.9771 38.0871 22.5529 38.0871C22.1994 38.0871 22.058 38.3699 22.2701 38.7941Z" fill="#9B8464"/>
<path d="M31.1075 39.5011C31.1075 39.8546 31.461 40.2081 31.8852 40.2081C32.2387 40.2081 32.3801 39.8546 32.168 39.5011C31.9559 39.0769 31.6024 38.7942 31.3903 38.7942C31.2489 38.7942 31.1075 39.0769 31.1075 39.5011Z" fill="#9B8464"/>
<path d="M22.6236 41.6927C22.6236 42.0462 22.9771 42.1876 23.3306 41.9755C23.7548 41.7634 24.0376 41.41 24.0376 41.1979C24.0376 41.0565 23.7548 40.9151 23.3306 40.9151C22.9771 40.9151 22.6236 41.2686 22.6236 41.6927Z" fill="#9B8464"/>
</svg>
