<svg width="50" height="50" viewBox="0 0 50 50" fill="none" xmlns="http://www.w3.org/2000/svg">
<path d="M0.184754 0.584047C0.0205283 0.966308 -0.0342138 11.2328 0.0205283 23.4105L0.184754 45.5271L13.9797 45.6909C27.5558 45.8001 27.72 45.8001 27.4463 44.7079C27.1726 43.6704 26.7346 43.6158 14.6367 43.6158H2.10073V22.8644V2.11309H22.9027H43.7047V14.6185C43.7047 26.687 43.7594 27.1239 44.7995 27.3969C45.8944 27.67 45.8944 27.5062 45.7849 13.9632L45.6206 0.201785L23.0122 0.0379592C5.22102 -0.0712584 0.34898 0.0379592 0.184754 0.584047Z" fill="#9B8464"/>
<path d="M16.3336 6.48187C15.7315 7.08257 15.2388 8.06553 15.2388 8.66622C15.2388 9.26692 15.7315 10.2499 16.3336 10.8506C17.2643 11.7789 18.1401 11.9427 22.9027 11.9427C27.6652 11.9427 28.5411 11.7789 29.4717 10.8506C30.0739 10.2499 30.5666 9.26692 30.5666 8.66622C30.5666 8.06553 30.0739 7.08257 29.4717 6.48187C28.5411 5.55352 27.6652 5.3897 22.9027 5.3897C18.1401 5.3897 17.2643 5.55352 16.3336 6.48187ZM28.1032 8.66622C28.1032 9.32153 27.1178 9.53996 23.2311 9.64918C18.4686 9.81301 16.9358 9.37614 17.7022 8.17474C17.9212 7.73787 19.7824 7.57405 23.0669 7.68327C27.1178 7.79248 28.1032 8.01092 28.1032 8.66622Z" fill="#9B8464"/>
<path d="M35.6029 28.9261C32.9753 29.6906 29.636 33.2948 28.8696 36.0798C27.6105 40.94 29.5265 46.0186 33.6869 48.5852C36.8072 50.5512 42.1172 50.4419 45.1827 48.4214C48.5767 46.1825 50 43.5066 50 39.2471C50 35.0423 48.5767 32.3118 45.347 30.1821C42.993 28.5984 38.5042 28.0524 35.6029 28.9261ZM42.9383 31.3835C48.5767 34.0593 49.7811 40.94 45.4017 45.3087C41.7887 48.9129 36.6977 48.8583 33.1942 45.1995C26.5157 38.2096 34.2343 27.2878 42.9383 31.3835Z" fill="#9B8464"/>
<path d="M42.7193 35.6976C42.1172 36.4621 40.8581 37.9365 39.8727 39.0287L38.121 41.0492L36.5882 39.8478C34.727 38.4826 34.0701 38.428 33.6869 39.5202C33.4679 40.0117 34.1796 40.8854 35.6029 41.9776C36.8619 42.8513 38.0663 43.6158 38.2852 43.6158C38.8326 43.6158 45.3469 36.1891 45.3469 35.5337C45.3469 34.3324 43.7047 34.4416 42.7193 35.6976Z" fill="#9B8464"/>
</svg>
